<!DOCTYPE svg PUBLIC "-//W3C//DTD SVG 1.1//EN" "http://www.w3.org/Graphics/SVG/1.1/DTD/svg11.dtd">
<!-- Uploaded to: SVG Repo, www.svgrepo.com, Transformed by: SVG Repo Mixer Tools -->
<svg height="64px" width="64px" version="1.1" id="Layer_1" xmlns="http://www.w3.org/2000/svg" xmlns:xlink="http://www.w3.org/1999/xlink" viewBox="0 0 512 512" xml:space="preserve" fill="#000000">
<g id="SVGRepo_bgCarrier" stroke-width="0"/>
<g id="SVGRepo_tracerCarrier" stroke-linecap="round" stroke-linejoin="round"/>
<g id="SVGRepo_iconCarrier"> <g> <circle style="fill:#A0EBFF;" cx="256" cy="256" r="256"/> <circle style="fill:#F7BF00;" cx="262.246" cy="268.8" r="150.907"/> <circle style="fill:#FDF35A;" cx="262.246" cy="252.672" r="150.907"/> <path style="fill:#F7BF00;" d="M262.236,101.74v301.819c83.343,0,150.907-67.564,150.907-150.907 C413.148,169.303,345.58,101.74,262.236,101.74z"/> <path style="fill:#335872;" d="M238.797,218.481c0.732,0.323,1.439,0.717,2.161,1.065c6.195-3.84,13.471-6.098,21.284-6.098 c7.813,0,15.089,2.258,21.284,6.098c0.722-0.348,1.423-0.737,2.161-1.065c2.396-1.853,4.536-3.978,6.405-6.298 c-8.422-6.021-18.703-9.605-29.844-9.605c-11.141,0-21.427,3.584-29.844,9.605C234.26,214.502,236.401,216.627,238.797,218.481z M305.234,252.36c-0.794,0.579-1.633,1.091-2.452,1.638c-0.005,15.16-8.387,28.385-20.746,35.338 c-0.072,1.208-0.108,2.422-0.241,3.625c0.363,2.647,1.029,5.217,1.915,7.695c17.659-8.141,29.942-25.948,29.942-46.669 c0-1.331-0.097-2.637-0.2-3.942C310.641,250.527,307.871,251.279,305.234,252.36z M221.696,253.998 c-0.819-0.548-1.659-1.06-2.452-1.638c-2.637-1.08-5.407-1.828-8.218-2.309c-0.097,1.306-0.2,2.611-0.2,3.942 c0,20.721,12.283,38.528,29.942,46.669c0.881-2.478,1.551-5.048,1.915-7.695c-0.133-1.203-0.169-2.417-0.241-3.625 C230.077,282.383,221.696,269.158,221.696,253.998z M345.62,232.259c-9.656-5.576-20.204-8.156-30.607-8.131 c5.222-8.996,8.264-19.415,8.264-30.572c0-33.71-27.331-61.041-61.041-61.041s-61.041,27.331-61.041,61.041 c0,11.151,3.041,21.571,8.264,30.572c-10.404-0.026-20.946,2.555-30.607,8.131c-29.194,16.855-39.199,54.19-22.344,83.384 s54.19,39.199,83.384,22.344c9.656-5.576,17.162-13.419,22.344-22.441c5.181,9.021,12.682,16.865,22.344,22.441 c29.194,16.855,66.529,6.856,83.384-22.344C384.819,286.444,374.815,249.114,345.62,232.259z M262.236,137.917 c27.75,0,50.243,22.492,50.243,50.243c0,16.748-8.228,31.539-20.828,40.673c-3.169,1.316-6.19,2.975-9.108,4.818 c-5.202-5.192-12.38-8.407-20.306-8.407c-7.931,0-15.109,3.21-20.306,8.407c-2.918-1.843-5.939-3.502-9.108-4.818 c-12.6-9.129-20.828-23.921-20.828-40.673C211.994,160.41,234.491,137.917,262.236,137.917z M229.821,331.331 c-24.028,13.875-54.758,5.642-68.634-18.391c-13.875-24.028-5.642-54.758,18.391-68.634c14.505-8.376,31.432-8.648,45.635-2.299 c2.816,2.156,5.862,3.999,9.032,5.642c-0.461,2.043-0.753,4.152-0.753,6.339c0,13.097,8.812,24.023,20.787,27.489 c-0.225,3.85-0.148,7.69,0.348,11.479C253.02,308.434,244.326,322.954,229.821,331.331z M243.451,253.988 c0-10.373,8.412-18.785,18.785-18.785s18.785,8.412,18.785,18.785c0,10.373-8.412,18.785-18.785,18.785 S243.451,264.366,243.451,253.988z M363.29,312.94c-13.875,24.028-44.6,32.266-68.634,18.391 c-14.505-8.376-23.204-22.897-24.806-38.374c0.497-3.789,0.573-7.634,0.348-11.479c11.976-3.466,20.787-14.392,20.787-27.489 c0-2.186-0.292-4.291-0.753-6.339c3.169-1.644,6.216-3.487,9.032-5.642c14.208-6.349,31.13-6.077,45.635,2.299 C368.927,258.181,377.16,288.911,363.29,312.94z"/> <path style="fill:#153040;" d="M285.681,218.481c2.396-1.853,4.536-3.978,6.405-6.298c-8.422-6.021-18.703-9.605-29.844-9.605 v10.865c7.813,0,15.089,2.258,21.284,6.098C284.242,219.197,284.943,218.808,285.681,218.481z M305.234,252.36 c-0.794,0.579-1.633,1.091-2.452,1.638c-0.005,15.16-8.387,28.385-20.746,35.338c-0.072,1.208-0.108,2.422-0.241,3.625 c0.363,2.647,1.029,5.217,1.915,7.695c17.659-8.141,29.942-25.948,29.942-46.669c0-1.331-0.097-2.637-0.2-3.942 C310.641,250.527,307.871,251.279,305.234,252.36z M345.62,232.259c-9.656-5.576-20.204-8.156-30.607-8.131 c5.222-8.996,8.264-19.415,8.264-30.572c0-33.71-27.331-61.041-61.041-61.041v5.402c27.75,0,50.243,22.492,50.243,50.243 c0,16.748-8.228,31.539-20.828,40.673c-3.169,1.316-6.19,2.975-9.108,4.818c-5.202-5.192-12.38-8.407-20.306-8.407v9.958 c10.373,0,18.785,8.412,18.785,18.785c0,10.373-8.412,18.785-18.785,18.785v42.767c5.181,9.021,12.682,16.865,22.344,22.441 c29.194,16.855,66.529,6.856,83.384-22.344C384.819,286.444,374.815,249.114,345.62,232.259z M363.29,312.94 c-13.875,24.028-44.6,32.266-68.634,18.391c-14.505-8.376-23.204-22.897-24.806-38.374c0.497-3.789,0.573-7.634,0.348-11.479 c11.976-3.466,20.787-14.392,20.787-27.489c0-2.186-0.292-4.291-0.753-6.339c3.169-1.644,6.216-3.487,9.032-5.642 c14.208-6.349,31.13-6.077,45.635,2.299C368.927,258.181,377.16,288.911,363.29,312.94z"/> </g> </g>
</svg>